# Blender 4.3.2
# www.blender.org
mtllib Bumper.mtl
o Circle
v 0.000000 0.000000 -0.849343
v -0.735553 0.000000 -0.424672
v -0.735553 0.000000 0.424672
v 0.000000 0.000000 0.849343
v 0.735553 0.000000 0.424672
v 0.735553 0.000000 -0.424672
v -0.433013 0.226544 -0.250000
v -0.433013 0.226544 0.250000
v 0.000000 0.226544 0.500000
v 0.433013 0.226544 0.250000
v 0.433013 0.226544 -0.250000
v 0.000000 0.226544 -0.500000
v 0.000000 0.156442 -0.000000
v -0.836677 -0.245044 -0.483055
v -0.836676 -0.245044 0.483055
v 0.000000 -0.245044 0.966111
v 0.836677 -0.245044 0.483055
v 0.836676 -0.245044 -0.483055
v -0.000000 -0.245044 -0.966111
v -0.477337 -0.245044 -0.826771
v 0.477337 -0.245044 -0.826771
v 0.954673 -0.245044 0.000000
v 0.477337 -0.245044 0.826771
v -0.477337 -0.245044 0.826771
v -0.954673 -0.245044 0.000000
v -0.419644 0.000000 -0.726845
v -0.839288 0.000000 0.000000
v -0.419644 0.000000 0.726845
v 0.419644 0.000000 0.726845
v 0.839288 0.000000 0.000000
v 0.419644 0.000000 -0.726845
v -0.247040 0.226544 -0.427886
v 0.247040 0.226544 -0.427886
v 0.494081 0.226544 0.000000
v 0.247040 0.226544 0.427886
v -0.247040 0.226544 0.427886
v -0.494081 0.226544 0.000000
v 0.000000 0.421805 0.000000
v -0.433013 0.327136 -0.250000
v -0.433013 0.327136 0.250000
v 0.000000 0.327136 0.500000
v 0.433013 0.327136 0.250000
v 0.433013 0.327136 -0.250000
v 0.000000 0.327136 -0.500000
v -0.247040 0.327136 -0.427886
v 0.247040 0.327136 -0.427886
v 0.494081 0.327136 0.000000
v 0.247040 0.327136 0.427886
v -0.247040 0.327136 0.427886
v -0.494081 0.327136 0.000000
v -0.836677 -0.129964 -0.483055
v -0.836676 -0.129964 0.483055
v 0.000000 -0.129964 0.966111
v 0.836677 -0.129964 0.483055
v 0.836676 -0.129964 -0.483055
v -0.000000 -0.129964 -0.966111
v -0.477337 -0.129964 -0.826771
v 0.477337 -0.129964 -0.826771
v 0.954673 -0.129964 0.000000
v 0.477337 -0.129964 0.826771
v -0.477337 -0.129964 0.826771
v -0.954673 -0.129964 0.000000
v 0.000000 -0.111680 -0.849343
v -0.735553 -0.111680 -0.424672
v -0.735553 -0.111680 0.424672
v 0.000000 -0.111680 0.849343
v 0.735553 -0.111680 0.424672
v 0.735553 -0.111680 -0.424672
v -0.419644 -0.111680 -0.726845
v -0.839288 -0.111680 0.000000
v -0.419644 -0.111680 0.726845
v 0.419644 -0.111680 0.726845
v 0.839288 -0.111680 0.000000
v 0.419644 -0.111680 -0.726845
v -0.433013 0.249405 -0.250000
v -0.433013 0.249405 0.250000
v 0.000000 0.249405 0.500000
v 0.433013 0.249405 0.250000
v 0.433013 0.249405 -0.250000
v 0.000000 0.249405 -0.500000
v -0.247040 0.249405 -0.427886
v 0.247040 0.249405 -0.427886
v 0.494081 0.249405 0.000000
v 0.247040 0.249405 0.427886
v -0.247040 0.249405 0.427886
v -0.494081 0.249405 0.000000
vn -0.3869 0.8286 -0.4045
vn 0.1569 0.8286 -0.5374
vn 0.5438 0.8286 -0.1328
vn 0.3869 0.8286 0.4045
vn -0.1569 0.8286 0.5374
vn -0.5438 0.8286 0.1328
vn 0.3877 -0.9218 -0.0000
vn 0.1938 -0.9218 -0.3357
vn -0.1938 -0.9218 -0.3357
vn -0.3877 -0.9218 -0.0000
vn -0.1938 -0.9218 0.3357
vn 0.1938 -0.9218 0.3357
vn -0.5438 0.8286 -0.1328
vn -0.3869 0.8286 0.4045
vn 0.1569 0.8286 0.5374
vn 0.5438 0.8286 0.1328
vn 0.3869 0.8286 -0.4045
vn -0.1569 0.8286 -0.5374
vn -0.1882 0.9821 -0.0000
vn -0.0941 0.9821 0.1630
vn 0.0941 0.9821 0.1630
vn 0.1882 0.9821 -0.0000
vn 0.0941 0.9821 -0.1630
vn -0.0941 0.9821 -0.1630
vn -0.2802 -0.0000 -0.9599
vn 0.2802 -0.0000 -0.9599
vn -0.6912 -0.0000 0.7226
vn -0.9714 -0.0000 0.2373
vn 0.6912 -0.0000 -0.7226
vn 0.9714 -0.0000 -0.2373
vn -0.9714 -0.0000 -0.2373
vn 0.9714 -0.0000 0.2373
vn 0.6912 -0.0000 0.7226
vn -0.6912 -0.0000 -0.7226
vn 0.2802 -0.0000 0.9599
vn -0.2802 -0.0000 0.9599
vn -0.0000 1.0000 -0.0000
vt 0.066483 0.497592
vt 0.066483 0.250828
vt 0.280187 0.374210
vt 0.280187 0.497592
vt 0.280187 0.867738
vt 0.066483 0.744356
vt 0.280187 0.620974
vt 0.387039 0.682665
vt 0.707595 0.867738
vt 0.493891 0.991120
vt 0.493891 0.744356
vt 0.600743 0.682665
vt 0.921299 0.497592
vt 0.921299 0.744356
vt 0.707595 0.620974
vt 0.707595 0.497592
vt 0.707595 0.127446
vt 0.921299 0.250828
vt 0.707595 0.374210
vt 0.600743 0.312519
vt 0.280187 0.127446
vt 0.493891 0.004064
vt 0.493891 0.250828
vt 0.387039 0.312519
vt 0.065200 0.991229
vt 0.065200 0.932367
vt 0.014224 0.961798
vt 0.039712 0.976513
vt 0.014224 0.902936
vt 0.014224 0.932367
vt 0.065200 0.873504
vt 0.039712 0.888220
vt 0.116176 0.902936
vt 0.090688 0.888220
vt 0.116176 0.961798
vt 0.116176 0.932367
vt 0.090688 0.976513
vt 0.292728 0.375110
vt 0.493228 0.375110
vt 0.693728 0.375110
vt 0.493228 0.722386
s 0
usemtl Material
f 26/1/1 2/2/1 7/3/1 32/4/1
f 31/5/2 1/6/2 12/7/2 33/8/2
f 30/9/3 6/10/3 11/11/3 34/12/3
f 29/13/4 5/14/4 10/15/4 35/16/4
f 28/17/5 4/18/5 9/19/5 36/20/5
f 27/21/6 3/22/6 8/23/6 37/24/6
f 14/25/7 13/26/7 15/27/7 25/28/7
f 15/27/8 13/26/8 16/29/8 24/30/8
f 16/29/9 13/26/9 17/31/9 23/32/9
f 17/31/10 13/26/10 18/33/10 22/34/10
f 18/33/11 13/26/11 19/35/11 21/36/11
f 19/35/12 13/26/12 14/25/12 20/37/12
f 2/2/13 27/21/13 37/24/13 7/3/13
f 3/22/14 28/17/14 36/20/14 8/23/14
f 4/18/15 29/13/15 35/16/15 9/19/15
f 5/14/16 30/9/16 34/12/16 10/15/16
f 6/10/17 31/5/17 33/8/17 11/11/17
f 1/6/18 26/1/18 32/4/18 12/7/18
f 39/38/19 50/39/19 40/40/19 38/41/19
f 40/38/20 49/39/20 41/40/20 38/41/20
f 41/38/21 48/39/21 42/40/21 38/41/21
f 42/38/22 47/39/22 43/40/22 38/41/22
f 43/38/23 46/39/23 44/40/23 38/41/23
f 44/38/24 45/39/24 39/40/24 38/41/24
f 20/37/25 57/37/25 56/35/25 19/35/25
f 19/35/26 56/35/26 58/36/26 21/36/26
f 24/30/27 61/30/27 52/27/27 15/27/27
f 15/27/28 52/27/28 62/28/28 25/28/28
f 21/36/29 58/36/29 55/33/29 18/33/29
f 18/33/30 55/33/30 59/34/30 22/34/30
f 25/28/31 62/28/31 51/25/31 14/25/31
f 22/34/32 59/34/32 54/31/32 17/31/32
f 17/31/33 54/31/33 60/32/33 23/32/33
f 14/25/34 51/25/34 57/37/34 20/37/34
f 23/32/35 60/32/35 53/29/35 16/29/35
f 16/29/36 53/29/36 61/30/36 24/30/36
f 1/6/26 31/5/26 74/5/26 63/6/26
f 4/18/36 28/17/36 71/17/36 66/18/36
f 30/9/32 5/14/32 67/14/32 73/9/32
f 27/21/31 2/2/31 64/2/31 70/21/31
f 5/14/33 29/13/33 72/13/33 67/14/33
f 31/5/29 6/10/29 68/10/29 74/5/29
f 28/17/27 3/22/27 65/22/27 71/17/27
f 2/2/34 26/1/34 69/1/34 64/2/34
f 6/10/30 30/9/30 73/9/30 68/10/30
f 3/22/28 27/21/28 70/21/28 65/22/28
f 29/13/35 4/18/35 66/18/35 72/13/35
f 26/1/25 1/6/25 63/6/25 69/1/25
f 50/39/31 39/38/31 75/38/31 86/39/31
f 47/39/32 42/38/32 78/38/32 83/39/32
f 42/40/33 48/39/33 84/39/33 78/40/33
f 39/40/34 45/39/34 81/39/34 75/40/34
f 48/39/35 41/38/35 77/38/35 84/39/35
f 41/40/36 49/39/36 85/39/36 77/40/36
f 45/39/25 44/38/25 80/38/25 81/39/25
f 44/40/26 46/39/26 82/39/26 80/40/26
f 49/39/27 40/38/27 76/38/27 85/39/27
f 40/40/28 50/39/28 86/39/28 76/40/28
f 46/39/29 43/38/29 79/38/29 82/39/29
f 43/40/30 47/39/30 83/39/30 79/40/30
f 57/37/37 51/25/37 62/28/37 52/27/37 61/30/37 53/29/37 60/32/37 54/31/37 59/34/37 55/33/37 58/36/37 56/35/37
