# Blender 4.3.2
# www.blender.org
mtllib 0.mtl
o Cube
v 1.000000 -1.197198 -2.065333
v 1.000000 -2.196335 -0.515680
v -1.000000 -1.197198 -2.065333
v -1.000000 -2.196335 -0.515680
v 1.000000 0.238358 -2.141556
v -1.000000 -0.446335 -1.016569
v 1.000000 -0.446335 -1.016569
v -1.000000 0.238358 -2.141556
v -1.000000 -0.745909 2.243022
v -1.000000 -0.181953 1.073556
v 0.965331 1.207112 0.781746
v 0.965331 1.430072 1.849937
v 1.000000 -0.745909 2.243022
v 1.000000 -0.181953 1.073556
v -1.000000 -0.778202 0.320600
v -1.000000 -2.196335 0.701711
v 1.000000 -2.196335 0.701711
v 1.000000 -0.778202 0.320600
v -0.625889 0.630631 -1.035103
v 0.625889 1.143433 -1.581774
v 0.625889 0.630631 -1.035103
v -0.625889 1.143433 -1.581774
v 1.000000 3.486176 -1.924213
v 1.000000 4.314576 -0.489547
v -1.000000 3.486176 -1.924213
v -1.000000 4.314576 -0.489547
v 1.000000 2.372931 -2.309680
v -1.000000 2.852042 -0.515680
v 1.000000 2.852042 -0.515680
v -1.000000 2.372931 -2.309680
v -0.978285 3.500978 1.861277
v -1.000000 2.829498 1.253824
v 1.021715 3.500978 1.861277
v 1.000000 2.829498 1.253824
v -1.000000 3.281909 0.473045
v -1.000000 4.314576 0.727844
v 1.000000 4.314576 0.727844
v 1.000000 3.281909 0.473045
v -0.625889 1.934925 -0.854782
v -1.034669 1.430072 1.849937
v 0.625889 1.934925 -0.854782
v -1.034669 1.207112 0.781746
vn -0.0000 -0.8405 -0.5419
vn -1.0000 -0.0000 -0.0000
vn 1.0000 -0.0000 -0.0000
vn -0.0000 -0.0530 -0.9986
vn -0.0000 0.5260 -0.8505
vn 0.9322 0.2943 0.2108
vn -0.9322 0.2943 0.2108
vn -0.0000 0.0172 0.9999
vn -0.0000 0.7840 -0.6208
vn -0.0000 0.1778 0.9841
vn -0.0000 -0.1369 0.9906
vn -0.0000 -0.0055 1.0000
vn -0.0000 -0.7283 0.6853
vn -0.0000 -1.0000 -0.0000
vn -0.0000 0.9706 0.2409
vn 0.9997 -0.0247 0.0002
vn -0.0000 0.2794 -0.9602
vn -0.0000 0.8660 -0.5000
vn -0.0000 0.3272 -0.9450
vn -0.0000 -0.5094 -0.8605
vn 0.9416 -0.3007 0.1516
vn -0.9416 -0.3007 0.1516
vn -0.0000 -0.3468 0.9379
vn -0.0000 -0.8652 -0.5014
vn 0.9999 -0.0052 -0.0148
vn 0.9998 0.0200 0.0031
vn -0.9999 0.0052 0.0148
vn -0.0000 0.8124 0.5831
vn -0.0000 1.0000 -0.0000
vn -0.0000 -0.9171 0.3987
vn -0.9997 0.0247 -0.0002
vn -0.0000 -0.2056 -0.9786
vn -0.9998 -0.0200 -0.0031
vt 0.625000 0.500000
vt 0.625000 0.750000
vt 0.875000 0.750000
vt 0.875000 0.500000
vt 0.562500 0.000000
vt 0.562500 0.250000
vt 0.625000 0.250000
vt 0.625000 0.000000
vt 0.562500 0.500000
vt 0.562500 0.750000
vt 0.499753 0.250000
vt 0.499753 0.500000
vt 0.499753 0.750000
vt 0.499753 0.000000
vt 0.499753 1.000000
vt 0.562500 1.000000
vt 0.625000 0.750000
vt 0.602687 0.750000
vt 0.879334 0.750000
vt 0.875000 0.750000
vt 0.562500 0.754334
vt 0.562500 1.004334
vt 0.540486 0.000000
vt 0.602687 0.000000
s 0
usemtl Material
f 1/1/1 2/2/1 4/3/1 3/4/1
f 6/5/2 8/6/2 3/7/2 4/8/2
f 5/9/3 7/10/3 2/2/3 1/1/3
f 8/6/4 5/9/4 1/1/4 3/7/4
f 22/11/5 20/12/5 5/9/5 8/6/5
f 20/12/6 21/13/6 7/10/6 5/9/6
f 19/14/7 22/11/7 8/6/7 6/5/7
f 21/13/8 19/15/8 6/16/8 7/10/8
f 15/16/9 10/16/9 14/10/9 18/10/9
f 18/10/3 14/10/3 13/2/3 17/17/3
f 12/18/10 40/19/10 9/3/10 13/2/10
f 16/8/2 9/8/2 10/5/2 15/5/2
f 19/14/11 21/13/11 41/13/11 39/14/11
f 33/2/12 31/3/12 40/19/12 12/18/12
f 17/17/13 13/2/13 9/3/13 16/20/13
f 2/2/14 17/17/14 16/20/14 4/3/14
f 4/8/2 16/8/2 15/5/2 6/5/2
f 7/10/3 18/10/3 17/17/3 2/2/3
f 6/16/15 15/16/15 18/10/15 7/10/15
f 22/11/2 19/14/2 39/14/2
f 41/13/3 21/13/3 20/12/3
f 34/10/16 33/2/16 12/18/16 11/21/16
f 32/16/17 34/10/17 11/21/17 42/22/17
f 23/1/18 25/4/18 26/3/18 24/2/18
f 28/5/2 26/8/2 25/7/2 30/6/2
f 27/9/3 23/1/3 24/2/3 29/10/3
f 30/6/19 25/7/19 23/1/19 27/9/19
f 22/11/20 30/6/20 27/9/20 20/12/20
f 20/12/21 27/9/21 29/10/21 41/13/21
f 39/14/22 28/5/22 30/6/22 22/11/22
f 41/13/23 29/10/23 28/16/23 39/15/23
f 35/16/24 38/10/24 34/10/24 32/16/24
f 38/10/25 37/17/25 33/2/25 34/10/25
f 11/21/26 12/18/26 13/2/26 14/10/26
f 36/8/27 35/5/27 32/5/27 31/8/27
f 37/17/28 36/20/28 31/3/28 33/2/28
f 24/2/29 26/3/29 36/20/29 37/17/29
f 26/8/2 28/5/2 35/5/2 36/8/2
f 29/10/3 24/2/3 37/17/3 38/10/3
f 28/16/30 29/10/30 38/10/30 35/16/30
f 31/8/31 32/5/31 42/23/31 40/24/31
f 42/22/32 11/21/32 14/10/32 10/16/32
f 40/24/33 42/23/33 10/5/33 9/8/33
