# Blender 4.3.2
# www.blender.org
mtllib P.mtl
o Cube
v -0.698327 -3.895887 1.618263
v -0.831642 0.211574 1.623575
v -0.916885 -3.873625 -0.304262
v -0.833440 -0.281708 0.501008
v 0.912453 -4.064311 1.454439
v 1.153504 0.211574 1.623575
v 0.963403 -4.157284 -0.425668
v 1.151706 -0.281708 0.501008
v -0.828846 3.881778 2.037783
v -1.209641 2.488431 0.677925
v 1.164175 3.881778 2.037783
v 0.770308 2.488431 0.677925
v -1.127087 3.852341 -0.689518
v -1.288631 2.852341 -2.689518
v 0.867527 3.852341 -0.689518
v 0.711369 2.852341 -2.689518
v 0.437437 2.352341 -1.189518
v -1.555035 2.352341 -1.189518
v -0.883627 0.753969 -2.150170
v 0.243454 0.818580 -1.954632
v 0.243454 0.729860 -0.835684
v -0.883627 0.665249 -1.031222
v 1.125283 0.602341 0.310482
v -0.859859 0.602341 0.310482
v -0.820193 -0.227273 -1.671626
v 0.466838 -0.216193 -1.826085
v 0.459192 0.613421 -0.843977
v -0.818416 0.602341 -0.689518
v -0.372015 -1.457568 1.493332
v -0.283426 -2.136712 0.400987
v 1.389768 -1.786758 0.607074
v 1.301179 -1.107613 1.699419
v -0.478447 -3.241038 1.457649
v -0.546827 -3.320806 0.208685
v 0.946711 -3.414775 0.180744
v 0.928215 -3.202462 1.447815
vn -0.9858 -0.1561 0.0620
vn -0.9534 -0.2804 0.1111
vn -1.0000 0.0047 -0.0014
vn 0.0462 0.1185 -0.9919
vn 0.0552 0.0111 -0.9984
vn 0.0487 0.0898 -0.9948
vn 0.9893 -0.1204 0.0819
vn 0.9906 0.1333 -0.0317
vn 0.9996 0.0200 0.0193
vn -0.0541 -0.0448 0.9975
vn -0.0276 -0.0693 0.9972
vn -0.0243 -0.0745 0.9969
vn -0.0543 -0.0492 0.9973
vn -0.1265 -0.9917 0.0240
vn -0.0000 0.1912 -0.9815
vn 0.9832 0.0792 -0.1646
vn -0.9839 -0.0791 0.1605
vn -0.0000 -0.1121 0.9937
vn 0.9717 -0.2258 -0.0699
vn -0.9727 0.2201 0.0734
vn -0.0000 0.9999 -0.0108
vn -0.9408 -0.2975 -0.1626
vn -0.0000 -0.9974 0.0727
vn 0.0707 -0.9944 -0.0788
vn 0.9851 -0.1582 0.0675
vn 0.0657 -0.2950 -0.9532
vn -0.0649 0.1435 0.9875
vn -0.0000 0.8944 -0.4472
vn 0.0021 -0.9996 -0.0270
vn -0.0840 0.7611 -0.6432
vn 0.9182 0.1810 -0.3523
vn -0.0031 1.0000 0.0060
vn -0.9998 -0.0064 -0.0173
vn -0.0012 0.0103 0.9999
vn 0.0106 0.0272 0.9996
vn 0.9948 -0.0825 0.0589
vn 0.9867 -0.1379 0.0857
vn 0.0398 0.4764 -0.8783
vn 0.0398 0.4323 -0.9009
vn -0.9598 0.2803 0.0136
vn -0.9481 0.3167 0.0291
vn -0.9044 0.4202 0.0742
vn 0.0388 0.6473 -0.7613
vn 0.9997 -0.0080 0.0228
vn 0.0615 0.1000 0.9931
vt 0.500000 0.000000
vt 0.625000 0.000000
vt 0.625000 0.250000
vt 0.500000 0.250000
vt 0.625000 0.500000
vt 0.500000 0.500000
vt 0.625000 0.750000
vt 0.500000 0.750000
vt 0.625000 1.000000
vt 0.500000 1.000000
vt 0.125000 0.500000
vt 0.375000 0.500000
vt 0.375000 0.750000
vt 0.125000 0.750000
vt 0.000000 0.000000
vt 0.408307 0.750000
vt 0.408307 1.000000
vt 0.408307 0.500000
vt 0.408307 0.250000
vt 0.408307 0.000000
vt 0.375000 0.000000
vt 0.375000 0.250000
vt 0.375000 1.000000
s 1
f 29/1/1 2/2/2 4/3/2 30/4/3
f 30/4/4 4/3/5 8/5/5 31/6/6
f 31/6/7 8/5/8 6/7/8 32/8/9
f 32/8/10 6/7/11 2/9/12 29/10/13
f 3/11/14 7/12/14 5/13/14 1/14/14
f 23/5/15 24/3/15 10/3/15 12/5/15
f 6/7/16 8/5/16 23/5/16 12/5/16 11/7/16
f 4/3/17 2/2/17 9/2/17 10/3/17 24/3/17
f 2/9/12 6/7/11 11/7/18 9/9/18
f 11/7/19 12/5/19 17/5/19 16/5/19 15/7/19
f 10/3/20 9/2/20 13/2/20 14/3/20 18/3/20
f 9/9/21 11/7/21 15/7/21 13/9/21
f 18/3/22 14/3/22 19/3/22 22/3/22
f 12/5/23 10/3/23 18/3/23 17/5/23
f 21/5/24 22/3/24 19/3/24 20/5/24
f 16/5/25 17/5/25 21/5/25 20/5/25
f 14/15/26 16/15/26 20/15/26 19/15/26
f 17/5/27 18/3/27 22/3/27 21/5/27
f 13/9/28 15/7/28 16/5/28 14/15/28
f 8/5/29 4/3/29 25/3/29 26/5/29
f 26/5/30 25/3/30 28/3/30 27/5/30
f 23/5/31 8/5/31 26/5/31 27/5/31
f 24/3/32 23/5/32 27/5/32 28/3/32
f 4/3/33 24/3/33 28/3/33 25/3/33
f 36/16/34 32/8/10 29/10/13 33/17/35
f 35/18/36 31/6/7 32/8/9 36/16/37
f 34/19/38 30/4/4 31/6/6 35/18/39
f 33/20/40 29/1/1 30/4/3 34/19/41
f 1/21/42 33/20/40 34/19/41 3/22/42
f 3/22/43 34/19/38 35/18/39 7/12/43
f 7/12/44 35/18/36 36/16/37 5/13/44
f 5/13/45 36/16/34 33/17/35 1/23/45
